Coordinates
version=1
nRows=17
nColumns=36
inDegrees=yes

Units are S.I. units (second, meters, Newtons, ...)
If the header above contains a line with 'inDegrees', this indicates whether rotational values are in degrees (yes) or radians (no).

endheader
time	pelvis_tilt	pelvis_list	pelvis_rotation	pelvis_tx	pelvis_ty	pelvis_tz	hip_flexion_r	hip_adduction_r	hip_rotation_r	knee_angle_r	knee_angle_r_beta	ankle_angle_r	subtalar_angle_r	mtp_angle_r	hip_flexion_l	hip_adduction_l	hip_rotation_l	knee_angle_l	knee_angle_l_beta	ankle_angle_l	subtalar_angle_l	mtp_angle_l	lumbar_extension	lumbar_bending	lumbar_rotation	arm_flex_r	arm_add_r	arm_rot_r	elbow_flex_r	pro_sup_r	arm_flex_l	arm_add_l	arm_rot_l	elbow_flex_l	pro_sup_l
      2.70000000	     -4.72071950	      3.44979090	    -11.83735548	      1.06316438	      1.03617479	      0.08093157	      2.98917870	    -10.55082837	     -8.25945764	      0.65215161	      0.01138219	      0.86885717	    -15.09341677	     -7.49999987	      4.03967602	     -2.30103531	     -1.05821597	      0.39078954	      0.00682056	      5.58842982	     -5.69575424	     -7.49999987	     -6.10138688	     -2.84687483	      2.68561329	     -9.94261227	    -14.61300227	    -24.36421490	      7.78583751	     90.59037072	     -9.50169666	    -13.51426799	    -20.89449740	     14.30887396	     87.83669002
      2.71666670	     -4.58457240	      3.48477486	    -11.37510356	      1.06836433	      1.03998954	      0.07904844	      2.63616360	    -10.68436975	     -8.61288664	      0.73570242	      0.01284043	      1.29782647	    -15.10668479	     -7.49999987	      3.84849399	     -2.19901084	     -1.07302094	      0.36347579	      0.00634385	      5.56360162	     -5.43342146	     -7.49999987	     -5.51283929	     -2.87960165	      2.64093293	    -10.54683471	    -14.98460358	    -24.69811645	      7.59452272	     88.81076309	    -10.27185638	    -13.94635527	    -21.89528298	     14.47007920	     85.89027151
      2.73333330	     -4.51466975	      3.58642328	    -10.92666748	      1.06405979	      1.03419808	      0.07492075	      2.45923427	    -10.87587784	     -9.01393196	      0.84390103	      0.01472885	      1.77396957	    -15.10458834	     -7.49999987	      3.83489016	     -2.01281282	     -0.83861140	      0.35507002	      0.00619714	      5.36034482	     -5.65560266	     -7.49999987	     -5.17565925	     -2.99515769	      2.52036002	    -10.51074349	    -15.38969400	    -24.91775329	      7.56236713	     88.41073324	    -10.82082750	    -14.22209372	    -23.70272956	     15.34962018	     84.65107790
      2.75000000	     -4.35182729	      3.62116937	    -10.56231498	      1.06947176	      1.03608682	      0.07312976	      2.17821218	    -11.03887394	     -9.18110550	      1.03071078	      0.01798930	      2.01156585	    -15.30670836	     -7.49999987	      3.67284854	     -1.86908145	     -0.86766460	      0.35355406	      0.00617068	      5.23325930	     -5.58246109	     -7.49999987	     -4.85649223	     -2.97882906	      2.65916890	    -10.55877153	    -15.85792448	    -24.95065144	      7.61959273	     88.40082121	    -10.94670729	    -14.62402054	    -23.80287390	     15.40580237	     84.61660609
      2.76666670	     -3.91667805	      3.72715889	    -10.13179894	      1.07512050	      1.04146128	      0.07061963	      1.58640737	    -11.35499882	     -9.60877350	      1.26841482	      0.02213801	      2.47919731	    -15.31628873	     -7.49999987	      3.21227207	     -1.58474321	     -0.70026291	      0.34328916	      0.00599153	      5.12453840	     -5.36279573	     -7.49999987	     -4.94536643	     -3.11296796	      2.47683490	    -10.52953617	    -16.16754701	    -24.84389331	      8.03088732	     86.59201144	    -11.30557294	    -14.41176118	    -26.06655145	     16.29811299	     81.85371560
      2.78333330	     -3.61338599	      3.83027245	     -9.77470834	      1.07455031	      1.03978410	      0.07032421	      1.21262646	    -11.63602417	     -9.89479006	      1.62359824	      0.02833713	      2.78118999	    -15.58480362	     -7.49999987	      2.88226716	     -1.34642707	     -0.54374395	      0.35995234	      0.00628235	      4.96573877	     -5.33642735	     -7.49999987	     -4.86861436	     -3.15189560	      2.55617347	    -10.64372099	    -16.40975369	    -24.88144835	      8.50025307	     86.43737090	    -11.05485035	    -14.60122769	    -26.26639497	     16.28145093	     81.68710260
      2.80000000	     -3.02653033	      3.88887198	     -9.50650455	      1.08028523	      1.04037010	      0.06816727	      0.52585130	    -11.92949528	    -10.29121430	      1.97771718	      0.03451768	      3.27349030	    -15.34856011	     -7.49999987	      2.21817594	     -1.09557189	     -0.46267495	      0.37119233	      0.00647853	      4.80610051	     -5.26866459	     -7.49999987	     -5.19313286	     -3.20260117	      2.31881950	    -10.29969439	    -16.70374269	    -24.42198007	      8.52832517	     86.02000311	    -10.95571251	    -14.61049381	    -26.76339381	     17.04362729	     80.69906968
      2.81666670	     -2.61469329	      4.02466505	     -9.21348501	      1.08554906	      1.04167327	      0.06629345	      0.08074399	    -12.28308606	    -10.44837544	      2.40885353	      0.04204243	      3.63679992	    -15.42577821	     -7.49999987	      1.72589212	     -0.78922147	     -0.28109789	      0.38076541	      0.00664561	      4.68852383	     -5.22017835	     -7.49999987	     -5.29824768	     -3.27022617	      2.09046272	    -10.11019076	    -17.10833259	    -18.88380475	      8.60538686	     79.31562853	    -10.64644022	    -14.77181981	    -23.85669062	     17.41758462	     72.85216787
      2.83333330	     -2.07234812	      4.13365112	     -8.97710789	      1.09098844	      1.03959372	      0.06431255	     -0.54317575	    -12.63712319	    -10.58677232	      2.76242849	      0.04821347	      4.00954881	    -15.46083754	     -7.49999987	      1.06109643	     -0.48562413	     -0.22369281	      0.38821291	      0.00677559	      4.59263004	     -5.13923745	     -7.49999987	     -5.57853576	     -3.36241082	      2.21991452	     -9.65519247	    -17.18594247	    -18.72665488	      9.01009508	     78.09889634	    -10.04574206	    -14.53516676	    -23.79711679	     18.05053037	     72.03740432
      2.85000000	     -1.54534610	      4.27604019	     -8.76416865	      1.09569077	      1.03565765	      0.06223144	     -1.10962121	    -13.02947445	    -10.69864215	      3.22533574	      0.05629273	      4.26506015	    -15.70734945	     -7.49999987	      0.39893992	     -0.14334204	      0.10814557	      0.40522926	      0.00707258	      4.52970430	     -5.29530647	     -7.49999987	     -5.82668713	     -3.51586182	      2.20306147	     -8.92846970	    -17.29391486	    -18.13296580	     10.28103026	     77.20191422	     -9.53973337	    -14.29816842	    -23.38075444	     18.60901853	     71.37333178
      2.86666670	     -1.02872783	      4.43360258	     -8.45833328	      1.09545360	      1.04065650	      0.06178089	     -1.53429412	    -13.44965484	    -10.92805021	      3.91373788	      0.06830761	      4.73700608	    -15.75247717	     -7.49999987	     -0.20028176	      0.18834194	      0.42928484	      0.44133436	      0.00770274	      4.44762520	     -5.28600735	     -7.49999987	     -6.32888036	     -3.76410810	      2.13536432	     -7.58324627	    -17.56422212	    -11.03734605	     10.44680838	     72.97874847	     -8.49025185	    -14.48359040	    -18.82048016	     18.41203648	     66.60945928
      2.88333330	     -0.48603511	      4.55736377	     -8.18637781	      1.09525521	      1.04451133	      0.06205792	     -1.93932312	    -13.82543822	    -11.20112810	      4.63940552	      0.08097290	      5.04835067	    -15.86701199	     -7.49999987	     -0.80255875	      0.48380212	      0.65873035	      0.49188156	      0.00858495	      4.33703160	     -5.31898167	     -7.49999987	     -6.93295776	     -4.00113818	      2.13264004	     -5.97335979	    -17.21997783	    -10.95896705	     10.69636233	     72.48980035	     -6.98330523	    -14.26651159	    -18.41792358	     18.37087703	     66.47170565
      2.90000000	     -0.27861720	      4.74439560	     -7.92472883	      1.09116382	      1.04634476	      0.05834159	     -1.72099481	    -14.25014756	    -11.40807744	      5.73358779	      0.10006998	      5.23988903	    -16.16924625	     -7.49999987	     -0.93730308	      0.80195437	      0.85924531	      0.61229356	      0.01068654	      4.20381481	     -5.27686485	     -7.49999987	     -7.25322970	     -4.26702259	      2.10361546	     -4.15587107	    -16.73014011	    -10.73461164	     11.49033305	     72.52263721	     -5.42964715	    -14.02626510	    -18.01895470	     18.72760617	     66.56665275
      2.91666670	      0.20483459	      4.92095143	     -7.72947900	      1.09097715	      1.04727930	      0.05850981	     -1.64373235	    -14.70737117	    -11.54098894	      6.95958683	      0.12146770	      5.49389777	    -16.47773547	     -7.49999987	     -1.35467917	      1.16200806	      1.05259819	      0.74161744	      0.01294367	      3.95899197	     -5.42637633	     -7.49999987	     -8.19142526	     -4.50137303	      2.23253910	     -2.49932121	    -16.39203707	     -8.11884120	     12.16919001	     67.24426876	     -3.24238167	    -14.27355886	    -14.02229127	     18.44436571	     64.24033524
      2.93333330	      0.35237827	      5.07598562	     -7.63986666	      1.09116159	      1.04212094	      0.05818009	     -0.88663730	    -15.15408339	    -11.56596959	      8.59628627	      0.15003350	      5.75307241	    -16.94071141	     -7.49999987	     -1.34377768	      1.45739865	      1.34853054	      1.01409698	      0.01769933	      3.69522455	     -6.01420503	     -7.49999987	     -8.80159829	     -4.74217883	      2.06386887	     -0.16405596	    -15.93981764	     -4.91976871	     13.06491083	     68.71019327	     -1.57064018	    -14.62867694	     -9.79425471	     19.29046683	     65.62586606
      2.95000000	      0.53058980	      5.17362218	     -7.51422120	      1.09647364	      1.04570606	      0.05616914	     -0.09490669	    -15.62994794	    -11.71303356	     10.43206423	      0.18207387	      5.72218168	    -17.23504095	     -7.49999987	     -1.35571331	      1.69064423	      1.39841559	      1.43027394	      0.02496299	      3.70626396	     -5.95327361	     -7.49999987	     -9.38281663	     -4.86393223	      2.03477952	      1.69262625	    -15.33076001	     -4.74980470	     13.98646592	     68.83275625	     -0.02222663	    -14.23058119	     -9.51397923	     19.85765664	     65.75027070
      2.96666670	      0.53209238	      5.41470175	     -7.53273279	      1.09276493	      1.04490486	      0.05276677	      1.26931418	    -16.26482004	    -11.33085913	     12.67351629	      0.22119459	      5.59083025	    -18.07543409	     -7.49999987	     -1.02569099	      2.05597675	      1.50146918	      2.09467654	      0.03655900	      3.67724226	     -6.35621491	     -7.49999987	     -9.79882825	     -5.18138554	      2.09326379	      3.87171083	    -14.78427227	     -2.89779447	     14.98573832	     67.72067414	      1.66673183	    -14.05682452	     -6.65593669	     20.54693422	     65.64785020
